HIERARCHY
ROOT Hips
{
	OFFSET -22.846729 91.940529 -261.900696
	CHANNELS 6 Xposition Yposition Zposition Zrotation Yrotation Xrotation 
	JOINT RightUpLeg
	{
		OFFSET 0.103462 1.857826 10.548503
		CHANNELS 3 Xrotation Yrotation Zrotation
		JOINT RightLeg
		{
			OFFSET 43.500000 -0.000031 0.000000
			CHANNELS 3 Xrotation Yrotation Zrotation
			JOINT RightFoot
			{
				OFFSET 42.372200 0.000008 -0.000003
				CHANNELS 3 Xrotation Yrotation Zrotation
				JOINT RightToe
				{
					OFFSET 17.300003 0.000000 0.000002
					CHANNELS 3 Xrotation Yrotation Zrotation
					End Site
					{
						OFFSET 0.000000 0.000000 0.000000
					}
				}
			}
		}
	}
	JOINT LeftUpLeg
	{
		OFFSET 0.103456 1.857828 -10.548503
		CHANNELS 3 Xrotation Yrotation Zrotation
		JOINT LeftLeg
		{
			OFFSET 43.500042 -0.000019 0.000010
			CHANNELS 3 Xrotation Yrotation Zrotation
			JOINT LeftFoot
			{
				OFFSET 42.372253 0.000000 0.000013
				CHANNELS 3 Xrotation Yrotation Zrotation
				JOINT LeftToe
				{
					OFFSET 17.299976 -0.000010 0.000008
					CHANNELS 3 Xrotation Yrotation Zrotation
					End Site
					{
						OFFSET 0.000000 0.000000 0.000000
					}
				}
			}
		}
	}
	JOINT Spine
	{
		OFFSET 6.901965 -2.603735 -0.000001
		CHANNELS 3 Xrotation Yrotation Zrotation
		JOINT Spine1
		{
			OFFSET 12.588106 -0.000003 0.000000
			CHANNELS 3 Xrotation Yrotation Zrotation
			JOINT Spine2
			{
				OFFSET 12.343198 0.000019 -0.000002
				CHANNELS 3 Xrotation Yrotation Zrotation
				JOINT Neck
				{
					OFFSET 25.832905 -0.000013 0.000001
					CHANNELS 3 Xrotation Yrotation Zrotation
					JOINT Head
					{
						OFFSET 11.766598 0.000013 -0.000001
						CHANNELS 3 Xrotation Yrotation Zrotation
						End Site
						{
							OFFSET 0.000000 0.000000 0.000000
						}
					}
				}
				JOINT RightShoulder
				{
					OFFSET 19.745911 -1.480387 6.000106
					CHANNELS 3 Xrotation Yrotation Zrotation
					JOINT RightArm
					{
						OFFSET 11.284126 -0.000005 -0.000031
						CHANNELS 3 Xrotation Yrotation Zrotation
						JOINT RightForeArm
						{
							OFFSET 33.000053 -0.000022 0.000026
							CHANNELS 3 Xrotation Yrotation Zrotation
							JOINT RightHand
							{
								OFFSET 25.200005 0.000041 0.000016
								CHANNELS 3 Xrotation Yrotation Zrotation
								End Site
								{
									OFFSET 0.000000 0.000000 0.000000
								}
							}
						}
					}
				}
				JOINT LeftShoulder
				{
					OFFSET 19.746105 -1.480383 -6.000075
					CHANNELS 3 Xrotation Yrotation Zrotation
					JOINT LeftArm
					{
						OFFSET 11.284141 -0.000009 -0.000009
						CHANNELS 3 Xrotation Yrotation Zrotation
						JOINT LeftForeArm
						{
							OFFSET 33.000092 0.000011 0.000021
							CHANNELS 3 Xrotation Yrotation Zrotation
							JOINT LeftHand
							{
								OFFSET 25.199780 0.000133 0.000423
								CHANNELS 3 Xrotation Yrotation Zrotation
								End Site
								{
									OFFSET 0.000000 0.000000 0.000000
								}
							}
						}
					}
				}
			}
		}
	}
}
MOTION
Frames: 11
Frame Time: 0.033333
-17.526291 91.207336 329.256195 90.017447 -6.971770 -80.983436 172.267835 -0.631796 175.423409 -22.215057 -1.462374 -2.488133 79.234204 2.280440 1.910898 21.454558 0.003119 0.000019 -169.847311 6.086116 -174.036253 -46.236812 2.141776 0.170559 81.108264 0.284368 1.916727 21.454555 -0.003099 -0.000000 7.925387 -1.002076 0.933369 5.822604 -2.049525 1.815658 5.504476 -2.038668 1.828007 10.588587 -8.689341 -0.821227 -11.254095 6.426701 -3.418201 -178.636371 -71.718810 -2.758504 -2.637740 51.112058 39.001360 -30.239962 -18.170742 1.463353 6.595517 -6.700413 3.615225 -159.909318 78.898493 21.958945 -19.302518 -60.164111 -34.490031 -34.510371 18.638592 -1.558786 2.071442 10.048621 -1.717966 
-16.875629 90.941223 330.865601 90.299103 -7.336646 -81.167666 170.699473 -1.144507 175.208955 -23.703022 -1.089802 -2.424950 78.797932 2.176646 1.664977 21.454558 0.003094 0.000016 -168.441645 5.962207 -174.957345 -45.545665 1.914024 -1.241937 78.948968 1.297351 1.865918 21.454541 -0.003085 -0.000004 7.943316 -0.812926 0.912556 5.861399 -1.670743 1.783141 5.543329 -1.660098 1.793196 10.594021 -8.334152 -0.721307 -11.266963 6.098678 -3.189367 -179.415313 -71.964704 -1.961304 -2.795381 51.682091 39.181199 -30.973723 -18.426746 1.494579 6.412088 -6.560415 4.020420 -159.461011 78.985236 22.413865 -20.422032 -59.557863 -32.806549 -36.467350 19.226571 -1.643100 1.688941 10.342999 -1.883075 
-16.126329 90.568581 332.577698 90.503504 -7.903604 -81.401648 169.281198 -1.704102 175.185582 -25.170709 -0.850303 -2.468007 78.380614 2.134708 1.372389 21.454562 0.003105 0.000016 -167.155001 5.805799 -176.054041 -43.289978 1.784605 -2.515520 74.519488 2.719716 3.323745 21.454550 -0.003091 -0.000005 8.034498 -0.617788 0.913045 6.046499 -1.282164 1.792776 5.728482 -1.271449 1.800484 10.795432 -7.866287 -0.702588 -11.413398 5.710046 -3.012653 179.343665 -72.280887 -0.691003 -3.177985 52.262698 39.117098 -32.066601 -18.805570 1.541761 6.099516 -6.543241 4.543645 -159.038633 78.921483 22.844625 -21.638618 -58.800019 -31.145065 -38.340208 19.725689 -1.722442 0.789872 11.049700 -1.822280 
-15.320100 90.122818 334.399109 90.621495 -8.421961 -81.696692 167.865395 -2.225205 175.336502 -26.416674 -0.745824 -2.628733 77.822472 2.171266 1.055004 21.454558 0.003103 0.000017 -166.061788 5.762895 -177.104701 -39.913505 2.097224 -3.746055 73.294903 3.575661 3.165357 21.454560 -0.003095 0.000001 8.135221 -0.428072 0.907674 6.250708 -0.904280 1.791050 5.932750 -0.893600 1.796463 10.977177 -7.718888 -0.666333 -11.333076 5.493221 -2.881153 178.743619 -72.402027 -0.076800 -3.688558 52.591716 39.005032 -33.689522 -19.347349 1.612273 5.741556 -6.732444 5.283253 -159.445521 78.929646 22.430498 -22.522668 -58.012266 -29.623791 -40.390737 20.096341 -1.800866 -0.003168 12.320639 -2.254524 
-14.404050 89.587357 336.522186 90.406344 -8.669464 -82.029254 166.278032 -2.450897 175.320820 -27.153933 -0.655810 -2.780509 76.852858 2.206537 0.752033 21.454558 0.003106 0.000019 -165.638740 6.020208 -177.897864 -37.755455 2.517857 -4.680688 75.257777 3.936480 2.418528 21.454548 -0.003092 -0.000002 8.213412 -0.337926 0.881043 6.408592 -0.723865 1.742108 6.090626 -0.713471 1.746440 11.363527 -7.313306 -0.507941 -11.565051 5.177985 -2.579446 178.386810 -72.469810 0.288501 -4.015584 52.666902 38.653912 -35.849819 -20.034420 1.707234 5.536008 -6.838717 6.223841 -160.212605 78.818607 21.651440 -23.594347 -57.224384 -28.474743 -42.136967 20.331720 -1.864767 -0.469023 12.972392 -2.306439 
-13.380460 89.058296 338.859009 90.155232 -8.828774 -82.364131 164.781073 -2.599211 175.270113 -27.226121 -0.429056 -2.922745 75.440075 2.251687 0.515561 21.454558 0.003109 0.000016 -165.304061 6.034385 -178.493620 -36.001394 3.074737 -4.730979 79.756768 3.457176 0.973943 21.454548 -0.003091 -0.000002 8.309121 -0.267835 0.857983 6.601155 -0.583955 1.699332 6.283189 -0.573819 1.702819 11.657923 -6.937232 -0.344199 -11.815841 4.758557 -2.248711 177.658903 -72.525196 1.035199 -4.378701 52.616772 37.966590 -38.079923 -20.715124 1.807333 5.141806 -7.227160 7.079913 -161.037911 78.622909 20.813834 -25.008092 -56.490148 -27.455955 -43.308047 20.302054 -1.896424 -1.236805 13.656258 -1.832888 
-12.222210 88.639977 341.240387 90.261168 -8.951130 -82.538786 163.441810 -3.084797 175.794453 -26.709086 -0.244134 -3.180997 73.908439 2.231896 -0.204945 21.454562 0.003125 0.000019 -164.632394 5.184795 -178.386564 -33.187821 3.100749 -4.203640 83.987291 2.748671 -0.299728 21.454553 -0.003088 0.000002 8.403265 -0.105474 0.812231 6.791898 -0.258240 1.616864 6.473924 -0.248603 1.618399 11.827052 -7.121862 -0.169443 -12.084894 4.614180 -2.032587 177.433985 -72.509302 1.266594 -4.841939 52.722524 36.884644 -40.125965 -21.470058 1.911200 4.566761 -7.610457 7.812740 -162.128692 78.668500 19.702727 -26.384425 -56.107596 -26.802082 -43.667998 20.162440 -1.897705 -2.212317 15.109910 -3.118937 
-10.892350 88.311287 343.707397 90.673568 -9.109221 -82.379076 162.317492 -4.009096 176.818353 -25.576702 -0.294318 -3.427107 72.383961 1.902453 -1.842052 21.454558 0.003117 0.000018 -163.760752 3.259397 -178.610663 -29.747752 2.742922 -2.570670 88.368311 1.555519 -0.687303 21.454551 -0.003095 0.000004 8.528957 0.128329 0.731663 7.046433 0.212046 1.469752 6.728448 0.220769 1.468421 11.947621 -7.199211 -0.018322 -12.546701 4.351132 -1.807246 177.636773 -72.460528 1.059394 -5.588912 52.731745 35.343500 -42.011671 -21.872477 1.990621 4.192167 -7.900597 8.351026 -163.096093 78.554388 18.718765 -27.740308 -55.768129 -26.811585 -43.406655 20.383523 -1.904676 -2.967541 16.516579 -5.050104 
-9.475025 88.057457 346.259888 91.383908 -9.218379 -81.712517 161.232325 -5.169799 177.727355 -23.917813 -0.225912 -3.302378 71.310795 1.124305 -3.927368 21.454558 0.003103 0.000016 -163.169217 0.940695 -179.776152 -26.191148 2.839129 -0.426758 91.499741 0.130413 -0.598667 21.454551 -0.003097 -0.000003 8.679443 0.455539 0.586810 7.350825 0.873017 1.201356 7.032763 0.880124 1.196057 11.776809 -7.347499 0.102254 -13.229459 4.170821 -1.670449 177.671962 -72.417210 1.024203 -6.510603 52.881701 33.847064 -43.347997 -22.262438 2.055470 3.871262 -8.605621 8.555609 -162.710378 78.421036 19.112905 -29.411334 -55.479137 -26.488403 -42.436782 20.231999 -1.866724 -3.269971 17.094936 -5.577046 
-8.120540 87.968643 348.890594 92.022763 -9.214101 -80.772834 160.462140 -6.204104 178.041339 -21.438782 -0.291855 -2.842628 71.559537 0.465468 -4.978984 21.454558 0.003104 0.000016 -162.958505 -0.822298 178.966543 -22.653586 3.372876 1.120818 93.354438 -0.926841 -0.733446 21.454553 -0.003087 0.000000 8.826923 0.803415 0.416756 7.647830 1.577593 0.885667 7.329642 1.582778 0.876126 11.396287 -7.659598 0.229907 -13.816631 4.186609 -1.610255 177.276440 -72.289800 1.433506 -7.393173 53.284157 32.368222 -44.219410 -22.614451 2.105005 3.707612 -9.321063 8.956181 -162.939804 78.445153 18.879013 -30.658318 -55.190039 -26.434686 -40.819085 19.869977 -1.797722 -2.710888 16.864939 -3.791854 
-6.839624 87.971474 351.478088 92.631155 -9.363951 -79.859460 160.219968 -7.210298 177.723312 -18.686274 -0.363230 -2.460597 73.549628 0.015201 -5.841699 21.454562 0.003109 0.000016 -163.142893 -1.932611 179.376860 -20.019255 3.698422 0.670462 94.192933 -0.686513 -1.205558 21.454557 -0.003101 -0.000001 9.007132 1.157564 0.293190 8.009687 2.292100 0.665807 7.691332 2.295936 0.651949 11.132413 -7.782525 0.287538 -14.418686 4.043562 -1.552338 176.728536 -72.185715 1.999082 -8.316017 53.718325 31.214630 -44.649978 -22.701344 2.123915 3.412788 -9.517667 8.770053 -163.733131 78.423044 18.071134 -31.209907 -54.812121 -26.948023 -38.804128 19.206442 -1.700631 -1.734102 16.682706 -1.894440 
